# xmcd CD database file
#
# Track frame offsets:
#	150
#	15977
#	35645
#	52990
#	69442
#	88840
#	104280
#	121352
#	137815
#	156442
#	175197
#	188562
#	204765
#	222305
#	237032
#	251072
#	267787
#	281960
#	294707
#	310925
#	329277
#	342690
#
# Disc length: 4787 seconds
#
# Revision: 22
# Processed by: cddbd v1.5.2PL0 Copyright (c) Steve Scherf et al.
# Submitted via: CDex 1.70beta2
#
DISCID=4c12b116
DTITLE=Kenny Rogers - 21 Number Ones
DYEAR=2006
DGENRE=Country
TTITLE0=The Gambler
TTITLE1=Through The Years
TTITLE2=Lady
TTITLE3=Lucille
TTITLE4=Coward Of The County
TTITLE5=I Don't Need You
TTITLE6=We've Got Tonight (with Sheena Easton)
TTITLE7=Crazy
TTITLE8=Islands In The Stream (with Dolly Parton)
TTITLE9=She Believes In Me
TTITLE10=Every Time Two Fools Collide (with Dottie West)
TTITLE11=You Decorated My Life
TTITLE12=Make No Mistake, She's Mine (with Ronnie Milsap)
TTITLE13=Share Your Love With Me
TTITLE14=All I Ever Need Is You (with Dottie West)
TTITLE15=Buy Me A Rose (with Alison Krauss and Billy Dean)
TTITLE16=Daytime Friends
TTITLE17=Love Or Something Like It
TTITLE18=Love Will Turn You Around
TTITLE19=Morning Desire
TTITLE20=What Are We Doin' In Love (with Dottie West)
TTITLE21=Don't Fall In Love With A Dreamer (with Kim Carnes)
EXTD=YEAR: 2006
EXTT0=
EXTT1=
EXTT2=
EXTT3=
EXTT4=
EXTT5=
EXTT6=
EXTT7=
EXTT8=
EXTT9=
EXTT10=
EXTT11=
EXTT12=
EXTT13=
EXTT14=
EXTT15=
EXTT16=
EXTT17=
EXTT18=
EXTT19=
EXTT20=
EXTT21=
PLAYORDER=
